<svg width="47" height="47" viewBox="0 0 47 47" fill="none" xmlns="http://www.w3.org/2000/svg">
<path d="M0.000408252 37.6603C0.000408252 35.6121 0.741087 32.7348 3.14777 28.4263C6.0853 23.187 8.79728 19.1346 13.9936 13.9236C19.0136 8.89948 22.2638 6.45457 28.4893 3.03273C35.5184 -0.832973 39.2029 -0.173999 40.7776 0.562625C42.6597 1.43986 43.7854 2.73472 44.9027 4.40839C45.5255 5.35902 46.0593 6.36503 46.4974 7.41365C46.5425 7.51858 46.5855 7.61617 46.6243 7.70326C46.8583 8.22267 47.2118 9.00966 46.8342 10.0065C46.5845 10.6718 46.0736 11.2657 45.1556 12.1954C43.2755 14.102 39.0885 16.7075 37.0322 17.6687C35.6464 18.314 34.7315 18.7411 33.7055 18.7421C32.5042 18.7421 31.5779 18.1377 30.5781 17.4042C30.3903 17.2668 30.2109 17.1304 30.0367 16.9981C28.9876 16.1996 28.6844 16.0244 28.143 16.1398C27.0551 16.3738 23.8165 18.1188 20.9555 20.9866C18.0946 23.8544 16.46 27.0003 16.2271 28.0926C16.1065 28.6572 16.289 28.9667 17.1157 30.0496C17.2343 30.2049 17.357 30.3644 17.4798 30.5313C18.3117 31.6498 18.9003 32.5334 18.9003 33.7065V33.7128C18.9003 34.7338 18.4576 35.6079 17.7274 37.0559C16.7748 38.9447 14.2034 43.2585 12.295 45.1504C11.3676 46.0707 10.7759 46.5838 10.1118 46.8346C9.11201 47.2123 8.32832 46.8566 7.80376 46.6247C7.71668 46.5859 7.62121 46.5429 7.51525 46.4977C6.4687 46.056 5.46501 45.519 4.51687 44.8933C2.84877 43.7779 1.5573 42.6478 0.679189 40.7611C0.221028 39.7923 -0.0110743 38.732 0.000408252 37.6603Z" fill="#197A09" fill-opacity="0.8"/>
</svg>
